<?xml version="1.0" encoding="utf-8"?>
<!-- Generator: Adobe Illustrator 18.0.0, SVG Export Plug-In . SVG Version: 6.00 Build 0)  -->
<!DOCTYPE svg PUBLIC "-//W3C//DTD SVG 1.1//EN" "http://www.w3.org/Graphics/SVG/1.1/DTD/svg11.dtd">
<svg version="1.1" id="Layer_1" xmlns="http://www.w3.org/2000/svg" xmlns:xlink="http://www.w3.org/1999/xlink" x="0px" y="0px"
	 width="1400px" height="980px" viewBox="0 0 1400 980" enable-background="new 0 0 1400 980" xml:space="preserve">
<radialGradient id="SVGID_1_" cx="291.9592" cy="246.9757" r="1028.8855" gradientUnits="userSpaceOnUse">
	<stop  offset="0" style="stop-color:#0054A4"/>
	<stop  offset="1" style="stop-color:#000F24"/>
</radialGradient>
<rect fill="url(#SVGID_1_)" width="1400" height="980"/>
<g opacity="0.41">
	<g>
		
			<ellipse transform="matrix(0.67 0.7424 -0.7424 0.67 1007.0316 -694.5726)" fill="#FFFCDD" cx="1284.7" cy="785.3" rx="1" ry="12.4"/>
		
			<ellipse transform="matrix(-0.7424 0.67 -0.67 -0.7424 2764.6116 507.6549)" fill="#FFFCDD" cx="1284.7" cy="785.3" rx="1" ry="12.4"/>
		
			<ellipse transform="matrix(-5.122009e-02 0.9987 -0.9987 -5.122009e-02 2134.8108 -457.4654)" fill="#FFFCDD" cx="1284.7" cy="785.3" rx="0.6" ry="21.5"/>
		
			<ellipse transform="matrix(0.9987 5.122013e-02 -5.122013e-02 0.9987 41.9111 -64.772)" fill="#FFFCDD" cx="1284.7" cy="785.3" rx="0.6" ry="21.5"/>
		<circle fill="#FFFCDD" cx="1284.7" cy="785.3" r="4.7"/>
	</g>
	<g>
		
			<ellipse transform="matrix(0.9974 -7.241420e-02 7.241420e-02 0.9974 -56.2799 91.9188)" fill="#FFFCDD" cx="1239.5" cy="822.1" rx="0.9" ry="10.2"/>
		
			<ellipse transform="matrix(7.241422e-02 0.9974 -0.9974 7.241422e-02 1969.7572 -473.6879)" fill="#FFFCDD" cx="1239.5" cy="822.1" rx="0.9" ry="10.2"/>
		
			<ellipse transform="matrix(0.7565 0.654 -0.654 0.7565 839.5977 -610.4905)" fill="#FFFCDD" cx="1239.5" cy="822.1" rx="0.5" ry="17.6"/>
		
			<ellipse transform="matrix(0.654 -0.7565 0.7565 0.654 -193.0826 1222.0785)" fill="#FFFCDD" cx="1239.5" cy="822.1" rx="0.5" ry="17.6"/>
		<circle fill="#FFFCDD" cx="1239.5" cy="822.1" r="3.9"/>
	</g>
	<g>
		
			<ellipse transform="matrix(0.9971 7.633292e-02 -7.633292e-02 0.9971 68.732 -84.6658)" fill="#FFFCDD" cx="1141.9" cy="856.8" rx="1.5" ry="17.6"/>
		
			<ellipse transform="matrix(-7.633291e-02 0.9971 -0.9971 -7.633291e-02 2083.3562 -216.4045)" fill="#FFFCDD" cx="1141.9" cy="856.8" rx="1.5" ry="17.6"/>
		
			<ellipse transform="matrix(0.6511 0.759 -0.759 0.6511 1048.7601 -567.7775)" fill="#FFFCDD" cx="1141.9" cy="856.8" rx="0.8" ry="30.5"/>
		
			<ellipse transform="matrix(0.759 -0.6511 0.6511 0.759 -282.6411 949.9304)" fill="#FFFCDD" cx="1141.9" cy="856.8" rx="0.8" ry="30.5"/>
		<circle fill="#FFFCDD" cx="1141.9" cy="856.8" r="6.7"/>
	</g>
	<g>
		
			<ellipse transform="matrix(0.3547 0.935 -0.935 0.3547 1482.7053 -461.1986)" fill="#FFFCDD" cx="1075.5" cy="843.6" rx="1.6" ry="18.5"/>
		
			<ellipse transform="matrix(-0.935 0.3547 -0.3547 -0.935 2380.2278 1250.7915)" fill="#FFFCDD" cx="1075.5" cy="843.6" rx="1.6" ry="18.5"/>
		
			<ellipse transform="matrix(-0.4103 0.9119 -0.9119 -0.4103 2286.031 208.9136)" fill="#FFFCDD" cx="1075.5" cy="843.6" rx="0.8" ry="32"/>
		
			<ellipse transform="matrix(0.9119 0.4103 -0.4103 0.9119 440.8273 -367.0021)" fill="#FFFCDD" cx="1075.5" cy="843.6" rx="0.8" ry="32"/>
		<circle fill="#FFFCDD" cx="1075.5" cy="843.6" r="7"/>
	</g>
	<g>
		
			<ellipse transform="matrix(0.7824 0.6227 -0.6227 0.7824 743.507 -451.972)" fill="#FFFCDD" cx="1018.6" cy="838.1" rx="1.5" ry="17.9"/>
		
			<ellipse transform="matrix(-0.6227 0.7824 -0.7824 -0.6227 2308.6902 563.0078)" fill="#FFFCDD" cx="1018.6" cy="838.1" rx="1.5" ry="17.9"/>
		
			<ellipse transform="matrix(0.1129 0.9936 -0.9936 0.1129 1736.3077 -268.642)" fill="#FFFCDD" cx="1018.6" cy="838.1" rx="0.8" ry="31.1"/>
		
			<ellipse transform="matrix(0.9936 -0.1129 0.1129 0.9936 -88.1429 120.4103)" fill="#FFFCDD" cx="1018.6" cy="838.1" rx="0.8" ry="31.1"/>
		<circle fill="#FFFCDD" cx="1018.6" cy="838.1" r="6.8"/>
	</g>
	<g>
		
			<ellipse transform="matrix(0.5695 0.822 -0.822 0.5695 1084.6378 -462.999)" fill="#FFFCDD" cx="984.3" cy="804" rx="0.8" ry="9.8"/>
		
			<ellipse transform="matrix(-0.822 0.5695 -0.5695 -0.822 2251.3408 904.2955)" fill="#FFFCDD" cx="984.3" cy="804" rx="0.8" ry="9.8"/>
		
			<ellipse transform="matrix(-0.1785 0.9839 -0.9839 -0.1785 1951.1653 -20.9838)" fill="#FFFCDD" cx="984.3" cy="804" rx="0.5" ry="17"/>
		
			<ellipse transform="matrix(0.9839 0.1785 -0.1785 0.9839 159.3585 -162.8234)" fill="#FFFCDD" cx="984.3" cy="804" rx="0.5" ry="17"/>
		<circle fill="#FFFCDD" cx="984.3" cy="804" r="3.7"/>
	</g>
	<g>
		
			<ellipse transform="matrix(0.3433 0.9392 -0.9392 0.3433 1337.137 -319.2978)" fill="#FFFCDD" cx="896.9" cy="796.6" rx="0.9" ry="11"/>
		
			<ellipse transform="matrix(-0.9392 0.3433 -0.3433 -0.9392 2012.7566 1236.7902)" fill="#FFFCDD" cx="896.9" cy="796.6" rx="0.9" ry="11"/>
		
			<ellipse transform="matrix(-0.4214 0.9069 -0.9069 -0.4214 1997.2231 318.821)" fill="#FFFCDD" cx="896.9" cy="796.6" rx="0.5" ry="19.1"/>
		
			<ellipse transform="matrix(0.9069 0.4214 -0.4214 0.9069 419.1675 -303.7644)" fill="#FFFCDD" cx="896.9" cy="796.6" rx="0.5" ry="19.1"/>
		<circle fill="#FFFCDD" cx="896.9" cy="796.6" r="4.2"/>
	</g>
	<g>
		
			<ellipse transform="matrix(0.9234 -0.3839 0.3839 0.9234 -245.6339 379.7566)" fill="#FFFCDD" cx="828.4" cy="805.2" rx="0.9" ry="10.3"/>
		
			<ellipse transform="matrix(0.3839 0.9234 -0.9234 0.3839 1253.8081 -268.8946)" fill="#FFFCDD" cx="828.4" cy="805.2" rx="0.9" ry="10.3"/>
		
			<ellipse transform="matrix(0.9244 0.3814 -0.3814 0.9244 369.747 -255.1136)" fill="#FFFCDD" cx="828.4" cy="805.2" rx="0.5" ry="17.9"/>
		
			<ellipse transform="matrix(0.3814 -0.9244 0.9244 0.3814 -231.853 1263.8176)" fill="#FFFCDD" cx="828.4" cy="805.2" rx="0.5" ry="17.9"/>
		<circle fill="#FFFCDD" cx="828.4" cy="805.2" r="3.9"/>
	</g>
	<g>
		
			<ellipse transform="matrix(0.6851 0.7284 -0.7284 0.6851 818.5005 -327.4653)" fill="#FFFCDD" cx="788" cy="783.1" rx="1.2" ry="14.7"/>
		
			<ellipse transform="matrix(-0.7284 0.6851 -0.6851 -0.7284 1898.5651 813.5165)" fill="#FFFCDD" cx="788" cy="783.1" rx="1.2" ry="14.7"/>
		
			<ellipse transform="matrix(-3.058795e-02 0.9995 -0.9995 -3.058795e-02 1594.8379 19.3371)" fill="#FFFCDD" cx="788" cy="783.1" rx="0.7" ry="25.4"/>
		
			<ellipse transform="matrix(0.9995 3.058801e-02 -3.058801e-02 0.9995 24.3209 -23.7382)" fill="#FFFCDD" cx="788" cy="783.1" rx="0.7" ry="25.4"/>
		<circle fill="#FFFCDD" cx="788" cy="783.1" r="5.5"/>
	</g>
	<g>
		
			<ellipse transform="matrix(3.684576e-02 0.9993 -0.9993 3.684576e-02 1415.1743 -47.8955)" fill="#FFFCDD" cx="732.4" cy="710.2" rx="0.6" ry="7.6"/>
		
			<ellipse transform="matrix(-0.9993 3.684584e-02 -3.684584e-02 -0.9993 1490.5392 1392.9497)" fill="#FFFCDD" cx="732.4" cy="710.2" rx="0.6" ry="7.6"/>
		
			<ellipse transform="matrix(-0.6806 0.7327 -0.7327 -0.6806 1751.2654 656.9185)" fill="#FFFCDD" cx="732.4" cy="710.2" rx="0.3" ry="13.2"/>
		
			<ellipse transform="matrix(0.7327 0.6806 -0.6806 0.7327 679.1431 -308.6218)" fill="#FFFCDD" cx="732.4" cy="710.2" rx="0.3" ry="13.2"/>
		<circle fill="#FFFCDD" cx="732.4" cy="710.2" r="2.9"/>
	</g>
	<g>
		
			<ellipse transform="matrix(0.9998 1.936536e-02 -1.936536e-02 0.9998 14.2858 -12.2559)" fill="#FFFCDD" cx="640" cy="731.5" rx="0.9" ry="11.1"/>
		
			<ellipse transform="matrix(-1.936534e-02 0.9998 -0.9998 -1.936534e-02 1383.7169 105.8273)" fill="#FFFCDD" cx="640" cy="731.5" rx="0.9" ry="11.1"/>
		
			<ellipse transform="matrix(0.6933 0.7207 -0.7207 0.6933 723.4572 -236.8327)" fill="#FFFCDD" cx="640" cy="731.5" rx="0.5" ry="19.3"/>
		
			<ellipse transform="matrix(0.7207 -0.6933 0.6933 0.7207 -328.3743 648.0038)" fill="#FFFCDD" cx="640" cy="731.5" rx="0.5" ry="19.3"/>
		<circle fill="#FFFCDD" cx="640" cy="731.5" r="4.2"/>
	</g>
	<g>
		
			<ellipse transform="matrix(0.9921 0.1253 -0.1253 0.9921 109.8566 -60.3927)" fill="#FFFCDD" cx="534.9" cy="842.9" rx="0.6" ry="6.7"/>
		
			<ellipse transform="matrix(-0.1253 0.9921 -0.9921 -0.1253 1438.1309 417.8316)" fill="#FFFCDD" cx="534.9" cy="842.9" rx="0.6" ry="6.7"/>
		
			<ellipse transform="matrix(0.6129 0.7902 -0.7902 0.6129 873.0372 -96.3751)" fill="#FFFCDD" cx="534.9" cy="842.9" rx="0.3" ry="11.7"/>
		
			<ellipse transform="matrix(0.7902 -0.6129 0.6129 0.7902 -404.3502 504.7009)" fill="#FFFCDD" cx="534.9" cy="842.9" rx="0.3" ry="11.7"/>
		<circle fill="#FFFCDD" cx="534.9" cy="842.9" r="2.5"/>
	</g>
	<g>
		
			<ellipse transform="matrix(0.9145 -0.4045 0.4045 0.9145 -259.2302 255.6411)" fill="#FFFCDD" cx="475.4" cy="741.3" rx="1" ry="11.8"/>
		
			<ellipse transform="matrix(0.4045 0.9145 -0.9145 0.4045 961.001 6.6989)" fill="#FFFCDD" cx="475.4" cy="741.3" rx="1" ry="11.8"/>
		
			<ellipse transform="matrix(0.9327 0.3606 -0.3606 0.9327 299.3279 -121.5481)" fill="#FFFCDD" cx="475.4" cy="741.3" rx="0.5" ry="20.4"/>
		
			<ellipse transform="matrix(0.3606 -0.9327 0.9327 0.3606 -387.4773 917.3144)" fill="#FFFCDD" cx="475.4" cy="741.3" rx="0.5" ry="20.4"/>
		<circle fill="#FFFCDD" cx="475.4" cy="741.3" r="4.5"/>
	</g>
	<g>
		
			<ellipse transform="matrix(0.9928 -0.1195 0.1195 0.9928 -82.6848 56.7456)" fill="#FFFCDD" cx="432" cy="718.1" rx="0.6" ry="7.6"/>
		
			<ellipse transform="matrix(0.1195 0.9928 -0.9928 0.1195 1093.3696 203.4074)" fill="#FFFCDD" cx="432" cy="718.1" rx="0.6" ry="7.6"/>
		
			<ellipse transform="matrix(0.7865 0.6176 -0.6176 0.7865 535.7171 -113.4924)" fill="#FFFCDD" cx="432" cy="718.1" rx="0.3" ry="13.1"/>
		
			<ellipse transform="matrix(0.6176 -0.7865 0.7865 0.6176 -399.5846 614.3981)" fill="#FFFCDD" cx="432" cy="718.1" rx="0.3" ry="13.1"/>
		<circle fill="#FFFCDD" cx="432" cy="718.1" r="2.9"/>
	</g>
	<g>
		
			<ellipse transform="matrix(0.9968 -8.006521e-02 8.006521e-02 0.9968 -57.4432 33.574)" fill="#FFFCDD" cx="389.9" cy="733.1" rx="1.3" ry="15.4"/>
		
			<ellipse transform="matrix(8.006525e-02 0.9968 -0.9968 8.006525e-02 1089.4551 285.709)" fill="#FFFCDD" cx="389.9" cy="733.1" rx="1.3" ry="15.4"/>
		
			<ellipse transform="matrix(0.7615 0.6482 -0.6482 0.7615 568.2249 -77.8889)" fill="#FFFCDD" cx="389.9" cy="733.1" rx="0.7" ry="26.7"/>
		
			<ellipse transform="matrix(0.6482 -0.7615 0.7615 0.6482 -421.0412 554.8043)" fill="#FFFCDD" cx="389.9" cy="733.1" rx="0.7" ry="26.7"/>
		<circle fill="#FFFCDD" cx="389.9" cy="733.1" r="5.8"/>
	</g>
	<g>
		
			<ellipse transform="matrix(0.905 0.4254 -0.4254 0.905 326.3329 -64.6553)" fill="#FFFCDD" cx="307.9" cy="698.4" rx="0.7" ry="7.9"/>
		
			<ellipse transform="matrix(-0.4254 0.905 -0.905 -0.4254 1070.9834 716.7795)" fill="#FFFCDD" cx="307.9" cy="698.4" rx="0.7" ry="7.9"/>
		
			<ellipse transform="matrix(0.3391 0.9407 -0.9407 0.3391 860.4987 171.84)" fill="#FFFCDD" cx="307.9" cy="698.4" rx="0.4" ry="13.7"/>
		
			<ellipse transform="matrix(0.9407 -0.3391 0.3391 0.9407 -218.6067 145.8294)" fill="#FFFCDD" cx="307.9" cy="698.4" rx="0.4" ry="13.7"/>
		<circle fill="#FFFCDD" cx="307.9" cy="698.4" r="3"/>
	</g>
	<g>
		
			<ellipse transform="matrix(0.863 0.5052 -0.5052 0.863 427.5368 -2.1866)" fill="#FFFCDD" cx="217.8" cy="787.2" rx="1.5" ry="18.2"/>
		
			<ellipse transform="matrix(-0.5052 0.863 -0.863 -0.5052 1007.1575 996.9077)" fill="#FFFCDD" cx="217.8" cy="787.2" rx="1.5" ry="18.2"/>
		
			<ellipse transform="matrix(0.253 0.9675 -0.9675 0.253 924.2664 377.3174)" fill="#FFFCDD" cx="217.8" cy="787.2" rx="0.8" ry="31.5"/>
		
			<ellipse transform="matrix(0.9675 -0.253 0.253 0.9675 -192.0537 80.7044)" fill="#FFFCDD" cx="217.8" cy="787.2" rx="0.8" ry="31.5"/>
		<circle fill="#FFFCDD" cx="217.8" cy="787.2" r="6.9"/>
	</g>
	<g>
		
			<ellipse transform="matrix(-5.897464e-02 0.9983 -0.9983 -5.897464e-02 936.6821 630.0701)" fill="#FFFCDD" cx="171.4" cy="756.5" rx="0.8" ry="9.2"/>
		
			<ellipse transform="matrix(-0.9983 -5.897451e-02 5.897451e-02 -0.9983 297.8225 1521.8383)" fill="#FFFCDD" cx="171.4" cy="756.5" rx="0.8" ry="9.2"/>
		
			<ellipse transform="matrix(-0.7476 0.6642 -0.6642 -0.7476 801.9434 1208.2664)" fill="#FFFCDD" cx="171.4" cy="756.5" rx="0.4" ry="15.9"/>
		
			<ellipse transform="matrix(0.6642 0.7476 -0.7476 0.6642 623.1102 125.949)" fill="#FFFCDD" cx="171.4" cy="756.5" rx="0.4" ry="15.9"/>
		<circle fill="#FFFCDD" cx="171.4" cy="756.5" r="3.5"/>
	</g>
	<g>
		
			<ellipse transform="matrix(0.4491 0.8935 -0.8935 0.4491 741.7962 302.6867)" fill="#FFFCDD" cx="125.4" cy="752.9" rx="1.6" ry="18.9"/>
		
			<ellipse transform="matrix(-0.8935 0.4491 -0.4491 -0.8935 575.6372 1369.2329)" fill="#FFFCDD" cx="125.4" cy="752.9" rx="1.6" ry="18.9"/>
		
			<ellipse transform="matrix(-0.3142 0.9493 -0.9493 -0.3142 879.6055 870.3726)" fill="#FFFCDD" cx="125.4" cy="752.9" rx="0.9" ry="32.7"/>
		
			<ellipse transform="matrix(0.9493 0.3142 -0.3142 0.9493 242.9357 -1.2817)" fill="#FFFCDD" cx="125.4" cy="752.9" rx="0.9" ry="32.7"/>
		<circle fill="#FFFCDD" cx="125.4" cy="752.9" r="7.1"/>
	</g>
	<g>
		
			<ellipse transform="matrix(0.4191 0.9079 -0.9079 0.4191 605.6025 343.8181)" fill="#FFFCDD" cx="34.1" cy="645.2" rx="0.9" ry="11"/>
		
			<ellipse transform="matrix(-0.9079 0.4191 -0.4191 -0.9079 335.4873 1216.7207)" fill="#FFFCDD" cx="34.1" cy="645.2" rx="0.9" ry="11"/>
		
			<ellipse transform="matrix(-0.3456 0.9384 -0.9384 -0.3456 651.3289 836.2121)" fill="#FFFCDD" cx="34.1" cy="645.2" rx="0.5" ry="19.1"/>
		
			<ellipse transform="matrix(0.9384 0.3456 -0.3456 0.9384 225.0938 27.9764)" fill="#FFFCDD" cx="34.1" cy="645.2" rx="0.5" ry="19.1"/>
		<circle fill="#FFFCDD" cx="34.1" cy="645.2" r="4.2"/>
	</g>
	<g>
		
			<ellipse transform="matrix(0.9996 2.842880e-02 -2.842880e-02 0.9996 16.4161 -2.067)" fill="#FFFCDD" cx="80.9" cy="576.3" rx="1.3" ry="15.6"/>
		
			<ellipse transform="matrix(-2.842882e-02 0.9996 -0.9996 -2.842882e-02 659.2665 511.8108)" fill="#FFFCDD" cx="80.9" cy="576.3" rx="1.3" ry="15.6"/>
		
			<ellipse transform="matrix(0.6867 0.7269 -0.7269 0.6867 444.2689 121.7333)" fill="#FFFCDD" cx="80.9" cy="576.3" rx="0.7" ry="27.1"/>
		
			<ellipse transform="matrix(0.7269 -0.6867 0.6867 0.7269 -373.6615 212.9305)" fill="#FFFCDD" cx="80.9" cy="576.3" rx="0.7" ry="27.1"/>
		<circle fill="#FFFCDD" cx="80.9" cy="576.3" r="5.9"/>
	</g>
	<g>
		
			<ellipse transform="matrix(0.6174 0.7866 -0.7866 0.6174 546.5877 87.7877)" fill="#FFFCDD" cx="183" cy="605.8" rx="0.8" ry="9.5"/>
		
			<ellipse transform="matrix(-0.7866 0.6174 -0.6174 -0.7866 701.0948 969.3926)" fill="#FFFCDD" cx="183" cy="605.8" rx="0.8" ry="9.5"/>
		
			<ellipse transform="matrix(-0.1196 0.9928 -0.9928 -0.1196 806.4276 496.5908)" fill="#FFFCDD" cx="183" cy="605.8" rx="0.4" ry="16.5"/>
		
			<ellipse transform="matrix(0.9928 0.1196 -0.1196 0.9928 73.7858 -17.5451)" fill="#FFFCDD" cx="183" cy="605.8" rx="0.4" ry="16.5"/>
		<circle fill="#FFFCDD" cx="183" cy="605.8" r="3.6"/>
	</g>
	<g>
		<ellipse transform="matrix(0.6006 0.7996 -0.7996 0.6006 471.3611 67.6)" fill="#FFFCDD" cx="168" cy="505.6" rx="0.8" ry="9.4"/>
		
			<ellipse transform="matrix(-0.7996 0.6006 -0.6006 -0.7996 606.002 808.9227)" fill="#FFFCDD" cx="168" cy="505.6" rx="0.8" ry="9.4"/>
		
			<ellipse transform="matrix(-0.1407 0.9901 -0.9901 -0.1407 692.2145 410.3764)" fill="#FFFCDD" cx="168" cy="505.6" rx="0.4" ry="16.3"/>
		
			<ellipse transform="matrix(0.9901 0.1407 -0.1407 0.9901 72.8148 -18.6125)" fill="#FFFCDD" cx="168" cy="505.6" rx="0.4" ry="16.3"/>
		<circle fill="#FFFCDD" cx="168" cy="505.6" r="3.6"/>
	</g>
	<g>
		
			<ellipse transform="matrix(0.247 0.969 -0.969 0.247 729.1496 129.117)" fill="#FFFCDD" cx="281.5" cy="533.7" rx="1.2" ry="13.7"/>
		
			<ellipse transform="matrix(-0.969 0.247 -0.247 -0.969 686.1189 981.4015)" fill="#FFFCDD" cx="281.5" cy="533.7" rx="1.2" ry="13.7"/>
		
			<ellipse transform="matrix(-0.5105 0.8599 -0.8599 -0.5105 884.148 564.1713)" fill="#FFFCDD" cx="281.5" cy="533.7" rx="0.6" ry="23.7"/>
		
			<ellipse transform="matrix(0.8599 0.5105 -0.5105 0.8599 311.9193 -68.9122)" fill="#FFFCDD" cx="281.5" cy="533.7" rx="0.6" ry="23.7"/>
		<circle fill="#FFFCDD" cx="281.5" cy="533.7" r="5.2"/>
	</g>
	<g>
		
			<ellipse transform="matrix(0.487 0.8734 -0.8734 0.487 595.3002 -87.5364)" fill="#FFFCDD" cx="372.2" cy="463" rx="0.7" ry="8.7"/>
		
			<ellipse transform="matrix(-0.8734 0.487 -0.487 -0.8734 922.7311 686.1516)" fill="#FFFCDD" cx="372.2" cy="463" rx="0.7" ry="8.7"/>
		
			<ellipse transform="matrix(-0.2732 0.962 -0.962 -0.2732 919.2516 231.4945)" fill="#FFFCDD" cx="372.2" cy="463" rx="0.4" ry="15.1"/>
		
			<ellipse transform="matrix(0.962 0.2732 -0.2732 0.962 140.643 -84.057)" fill="#FFFCDD" cx="372.2" cy="463" rx="0.4" ry="15.1"/>
		<circle fill="#FFFCDD" cx="372.2" cy="463" r="3.3"/>
	</g>
	<g>
		
			<ellipse transform="matrix(0.3136 0.9495 -0.9495 0.3136 800.7882 -44.4268)" fill="#FFFCDD" cx="431.1" cy="531.7" rx="1.2" ry="13.9"/>
		
			<ellipse transform="matrix(-0.9495 0.3136 -0.3136 -0.9495 1007.2539 901.3658)" fill="#FFFCDD" cx="431.1" cy="531.7" rx="1.2" ry="13.9"/>
		
			<ellipse transform="matrix(-0.4497 0.8932 -0.8932 -0.4497 1099.901 385.7092)" fill="#FFFCDD" cx="431.1" cy="531.7" rx="0.6" ry="24"/>
		
			<ellipse transform="matrix(0.8932 0.4497 -0.4497 0.8932 285.1315 -137.074)" fill="#FFFCDD" cx="431.1" cy="531.7" rx="0.6" ry="24"/>
		<circle fill="#FFFCDD" cx="431.1" cy="531.7" r="5.2"/>
	</g>
	<g>
		
			<ellipse transform="matrix(0.6854 0.7281 -0.7281 0.6854 497.0937 -240.5685)" fill="#FFFCDD" cx="527" cy="455" rx="1.3" ry="15.4"/>
		
			<ellipse transform="matrix(-0.7281 0.6854 -0.6854 -0.7281 1222.5784 425.1568)" fill="#FFFCDD" cx="527" cy="455" rx="1.3" ry="15.4"/>
		
			<ellipse transform="matrix(-3.019105e-02 0.9995 -0.9995 -3.019105e-02 997.7122 -57.9585)" fill="#FFFCDD" cx="527" cy="455" rx="0.7" ry="26.7"/>
		
			<ellipse transform="matrix(0.9995 3.019099e-02 -3.019099e-02 0.9995 13.9782 -15.7024)" fill="#FFFCDD" cx="527" cy="455" rx="0.7" ry="26.7"/>
		<circle fill="#FFFCDD" cx="527" cy="455" r="5.8"/>
	</g>
	<g>
		
			<ellipse transform="matrix(0.7132 0.701 -0.701 0.7132 486.425 -310.3236)" fill="#FFFCDD" cx="622.4" cy="439.3" rx="0.8" ry="9.7"/>
		
			<ellipse transform="matrix(-0.701 0.7132 -0.7132 -0.701 1372.0079 303.248)" fill="#FFFCDD" cx="622.4" cy="439.3" rx="0.8" ry="9.7"/>
		<ellipse fill="#FFFCDD" cx="622.4" cy="439.3" rx="16.8" ry="0.4"/>
		<ellipse fill="#FFFCDD" cx="622.4" cy="439.3" rx="0.4" ry="16.8"/>
		<circle fill="#FFFCDD" cx="622.4" cy="439.3" r="3.7"/>
	</g>
	<g>
		
			<ellipse transform="matrix(0.7301 0.6834 -0.6834 0.7301 549.7524 -337.0311)" fill="#FFFCDD" cx="701.5" cy="527.4" rx="1.6" ry="18.7"/>
		
			<ellipse transform="matrix(-0.6834 0.7301 -0.7301 -0.6834 1565.9385 375.6366)" fill="#FFFCDD" cx="701.5" cy="527.4" rx="1.6" ry="18.7"/>
		
			<ellipse transform="matrix(3.303673e-02 0.9995 -0.9995 3.303673e-02 1205.4437 -191.1561)" fill="#FFFCDD" cx="701.5" cy="527.4" rx="0.9" ry="32.4"/>
		
			<ellipse transform="matrix(0.9995 -3.303678e-02 3.303678e-02 0.9995 -17.0405 23.4636)" fill="#FFFCDD" cx="701.5" cy="527.4" rx="0.9" ry="32.4"/>
		<circle fill="#FFFCDD" cx="701.5" cy="527.4" r="7.1"/>
	</g>
	<g>
		
			<ellipse transform="matrix(0.5556 0.8314 -0.8314 0.5556 835.0261 -371.2685)" fill="#FFFCDD" cx="764.8" cy="595.5" rx="1.5" ry="17.5"/>
		
			<ellipse transform="matrix(-0.8314 0.5556 -0.5556 -0.8314 1731.6302 665.7219)" fill="#FFFCDD" cx="764.8" cy="595.5" rx="1.5" ry="17.5"/>
		
			<ellipse transform="matrix(-0.195 0.9808 -0.9808 -0.195 1498.0957 -38.466)" fill="#FFFCDD" cx="764.8" cy="595.5" rx="0.8" ry="30.4"/>
		
			<ellipse transform="matrix(0.9808 0.195 -0.195 0.9808 130.8381 -137.7341)" fill="#FFFCDD" cx="764.8" cy="595.5" rx="0.8" ry="30.4"/>
		<circle fill="#FFFCDD" cx="764.8" cy="595.5" r="6.6"/>
	</g>
	<g>
		
			<ellipse transform="matrix(0.2041 0.9789 -0.9789 0.2041 1242.1478 -333.2248)" fill="#FFFCDD" cx="826" cy="597.3" rx="1.6" ry="18.9"/>
		
			<ellipse transform="matrix(-0.9789 0.2041 -0.2041 -0.9789 1756.5671 1013.4645)" fill="#FFFCDD" cx="826" cy="597.3" rx="1.6" ry="18.9"/>
		
			<ellipse transform="matrix(-0.5479 0.8366 -0.8366 -0.5479 1778.2657 233.58)" fill="#FFFCDD" cx="826" cy="597.3" rx="0.9" ry="32.7"/>
		
			<ellipse transform="matrix(0.8366 0.5479 -0.5479 0.8366 462.2633 -354.9236)" fill="#FFFCDD" cx="826" cy="597.3" rx="0.9" ry="32.7"/>
		<circle fill="#FFFCDD" cx="826" cy="597.3" r="7.1"/>
	</g>
	<g>
		
			<ellipse transform="matrix(0.9999 1.501081e-02 -1.501081e-02 0.9999 7.5379 -13.1019)" fill="#FFFCDD" cx="876.6" cy="495.6" rx="0.6" ry="7.1"/>
		
			<ellipse transform="matrix(-1.501079e-02 0.9999 -0.9999 -1.501079e-02 1385.2405 -373.4269)" fill="#FFFCDD" cx="876.6" cy="495.6" rx="0.6" ry="7.1"/>
		
			<ellipse transform="matrix(0.6964 0.7176 -0.7176 0.6964 621.7635 -478.5959)" fill="#FFFCDD" cx="876.6" cy="495.6" rx="0.3" ry="12.3"/>
		
			<ellipse transform="matrix(0.7176 -0.6964 0.6964 0.7176 -97.6312 750.3752)" fill="#FFFCDD" cx="876.6" cy="495.6" rx="0.3" ry="12.3"/>
		<circle fill="#FFFCDD" cx="876.6" cy="495.6" r="2.7"/>
	</g>
	<g>
		
			<ellipse transform="matrix(0.2061 0.9785 -0.9785 0.2061 1296.6495 -471.0799)" fill="#FFFCDD" cx="938.7" cy="563.6" rx="1.5" ry="17.5"/>
		
			<ellipse transform="matrix(-0.9785 0.2061 -0.2061 -0.9785 1973.3202 921.5854)" fill="#FFFCDD" cx="938.7" cy="563.6" rx="1.5" ry="17.5"/>
		
			<ellipse transform="matrix(-0.5462 0.8377 -0.8377 -0.5462 1923.415 85.1096)" fill="#FFFCDD" cx="938.7" cy="563.6" rx="0.8" ry="30.3"/>
		
			<ellipse transform="matrix(0.8377 0.5462 -0.5462 0.8377 460.1739 -421.1749)" fill="#FFFCDD" cx="938.7" cy="563.6" rx="0.8" ry="30.3"/>
		<circle fill="#FFFCDD" cx="938.7" cy="563.6" r="6.6"/>
	</g>
	<g>
		
			<ellipse transform="matrix(0.9413 -0.3375 0.3375 0.9413 -128.6889 380.3093)" fill="#FFFCDD" cx="1029.5" cy="560.3" rx="0.6" ry="7.4"/>
		
			<ellipse transform="matrix(0.3375 0.9413 -0.9413 0.3375 1209.4702 -597.8947)" fill="#FFFCDD" cx="1029.5" cy="560.3" rx="0.6" ry="7.4"/>
		
			<ellipse transform="matrix(0.9043 0.427 -0.427 0.9043 337.798 -385.9345)" fill="#FFFCDD" cx="1029.5" cy="560.3" rx="0.3" ry="12.8"/>
		
			<ellipse transform="matrix(0.427 -0.9043 0.9043 0.427 83.2711 1251.9814)" fill="#FFFCDD" cx="1029.5" cy="560.3" rx="0.3" ry="12.8"/>
		<circle fill="#FFFCDD" cx="1029.5" cy="560.3" r="2.8"/>
	</g>
	<g>
		
			<ellipse transform="matrix(0.7296 0.6838 -0.6838 0.7296 654.7903 -610.6359)" fill="#FFFCDD" cx="1099.6" cy="522.7" rx="0.6" ry="7"/>
		
			<ellipse transform="matrix(-0.6838 0.7296 -0.7296 -0.6838 2233.0076 77.9161)" fill="#FFFCDD" cx="1099.6" cy="522.7" rx="0.6" ry="7"/>
		
			<ellipse transform="matrix(3.237011e-02 0.9995 -0.9995 3.237011e-02 1586.5028 -593.2194)" fill="#FFFCDD" cx="1099.6" cy="522.7" rx="0.3" ry="12.2"/>
		
			<ellipse transform="matrix(0.9995 -3.237011e-02 3.237011e-02 0.9995 -16.3452 35.8689)" fill="#FFFCDD" cx="1099.6" cy="522.7" rx="0.3" ry="12.2"/>
		<circle fill="#FFFCDD" cx="1099.6" cy="522.7" r="2.7"/>
	</g>
	<g>
		
			<ellipse transform="matrix(0.787 0.6169 -0.6169 0.787 638.5843 -596.976)" fill="#FFFCDD" cx="1183.9" cy="626.4" rx="0.6" ry="7.1"/>
		
			<ellipse transform="matrix(-0.6169 0.787 -0.787 -0.6169 2407.3171 81.068)" fill="#FFFCDD" cx="1183.9" cy="626.4" rx="0.6" ry="7.1"/>
		
			<ellipse transform="matrix(0.1203 0.9927 -0.9927 0.1203 1663.3782 -624.2706)" fill="#FFFCDD" cx="1183.9" cy="626.4" rx="0.3" ry="12.4"/>
		
			<ellipse transform="matrix(0.9927 -0.1203 0.1203 0.9927 -66.7542 146.9629)" fill="#FFFCDD" cx="1183.9" cy="626.4" rx="0.3" ry="12.4"/>
		<circle fill="#FFFCDD" cx="1183.9" cy="626.4" r="2.7"/>
	</g>
	<g>
		
			<ellipse transform="matrix(0.293 0.9561 -0.9561 0.293 1503.6055 -775.4359)" fill="#FFFCDD" cx="1276.2" cy="629" rx="1" ry="11.5"/>
		
			<ellipse transform="matrix(-0.9561 0.293 -0.293 -0.9561 2680.6052 856.472)" fill="#FFFCDD" cx="1276.2" cy="629" rx="1" ry="11.5"/>
		
			<ellipse transform="matrix(-0.4689 0.8833 -0.8833 -0.4689 2430.0845 -203.2467)" fill="#FFFCDD" cx="1276.2" cy="629" rx="0.5" ry="19.9"/>
		
			<ellipse transform="matrix(0.8833 0.4689 -0.4689 0.8833 443.8869 -524.9152)" fill="#FFFCDD" cx="1276.2" cy="629" rx="0.5" ry="19.9"/>
		<circle fill="#FFFCDD" cx="1276.2" cy="629" r="4.3"/>
	</g>
	<g>
		
			<ellipse transform="matrix(0.752 0.6592 -0.6592 0.752 702.4558 -741.6176)" fill="#FFFCDD" cx="1336.7" cy="562.7" rx="1" ry="11.5"/>
		
			<ellipse transform="matrix(-0.6592 0.752 -0.752 -0.6592 2641.0215 -71.6216)" fill="#FFFCDD" cx="1336.7" cy="562.7" rx="1" ry="11.5"/>
		
			<ellipse transform="matrix(6.560172e-02 0.9978 -0.9978 6.560172e-02 1810.4993 -808.1096)" fill="#FFFCDD" cx="1336.7" cy="562.7" rx="0.5" ry="19.9"/>
		
			<ellipse transform="matrix(0.9978 -6.560175e-02 6.560175e-02 0.9978 -34.0322 88.9046)" fill="#FFFCDD" cx="1336.7" cy="562.7" rx="0.5" ry="19.9"/>
		<circle fill="#FFFCDD" cx="1336.7" cy="562.7" r="4.3"/>
	</g>
	<g>
		
			<ellipse transform="matrix(0.205 0.9788 -0.9788 0.205 1589.5317 -899.2285)" fill="#FFFCDD" cx="1348.3" cy="528.9" rx="1" ry="11.3"/>
		
			<ellipse transform="matrix(-0.9788 0.205 -0.205 -0.9788 2776.3931 770.0836)" fill="#FFFCDD" cx="1348.3" cy="528.9" rx="1" ry="11.3"/>
		
			<ellipse transform="matrix(-0.5471 0.837 -0.837 -0.5471 2528.6882 -310.3795)" fill="#FFFCDD" cx="1348.3" cy="528.9" rx="0.5" ry="19.5"/>
		
			<ellipse transform="matrix(0.837 0.5471 -0.5471 0.837 509.0688 -651.5237)" fill="#FFFCDD" cx="1348.3" cy="528.9" rx="0.5" ry="19.5"/>
		<circle fill="#FFFCDD" cx="1348.3" cy="528.9" r="4.3"/>
	</g>
	<g>
		
			<ellipse transform="matrix(0.936 0.3519 -0.3519 0.936 264.5369 -415.3804)" fill="#FFFCDD" cx="1274.9" cy="520" rx="1.1" ry="13"/>
		
			<ellipse transform="matrix(-0.3519 0.936 -0.936 -0.3519 2210.2417 -490.3548)" fill="#FFFCDD" cx="1274.9" cy="520" rx="1.1" ry="13"/>
		
			<ellipse transform="matrix(0.413 0.9107 -0.9107 0.413 1221.8616 -855.8362)" fill="#FFFCDD" cx="1274.9" cy="520" rx="0.6" ry="22.5"/>
		
			<ellipse transform="matrix(0.9107 -0.413 0.413 0.9107 -100.9447 572.9998)" fill="#FFFCDD" cx="1274.9" cy="520" rx="0.6" ry="22.5"/>
		<circle fill="#FFFCDD" cx="1274.9" cy="520" r="4.9"/>
	</g>
	<g>
		
			<ellipse transform="matrix(0.9128 0.4084 -0.4084 0.9128 287.3104 -502.2609)" fill="#FFFCDD" cx="1319.9" cy="421.7" rx="1.3" ry="15.4"/>
		
			<ellipse transform="matrix(-0.4084 0.9128 -0.9128 -0.4084 2243.8193 -610.8505)" fill="#FFFCDD" cx="1319.9" cy="421.7" rx="1.3" ry="15.4"/>
		
			<ellipse transform="matrix(0.3567 0.9342 -0.9342 0.3567 1243.0752 -961.7618)" fill="#FFFCDD" cx="1319.9" cy="421.7" rx="0.7" ry="26.7"/>
		
			<ellipse transform="matrix(0.9342 -0.3567 0.3567 0.9342 -63.6011 498.4831)" fill="#FFFCDD" cx="1319.9" cy="421.7" rx="0.7" ry="26.7"/>
		<circle fill="#FFFCDD" cx="1319.9" cy="421.7" r="5.8"/>
	</g>
	<g>
		
			<ellipse transform="matrix(0.5037 0.8639 -0.8639 0.5037 964.6972 -878.3247)" fill="#FFFCDD" cx="1246.7" cy="400.4" rx="0.9" ry="10.8"/>
		
			<ellipse transform="matrix(-0.8639 0.5037 -0.5037 -0.8639 2525.4539 118.3544)" fill="#FFFCDD" cx="1246.7" cy="400.4" rx="0.9" ry="10.8"/>
		
			<ellipse transform="matrix(-0.2547 0.967 -0.967 -0.2547 1951.4943 -703.2284)" fill="#FFFCDD" cx="1246.7" cy="400.4" rx="0.5" ry="18.7"/>
		
			<ellipse transform="matrix(0.967 0.2547 -0.2547 0.967 143.1143 -304.3653)" fill="#FFFCDD" cx="1246.7" cy="400.4" rx="0.5" ry="18.7"/>
		<circle fill="#FFFCDD" cx="1246.7" cy="400.4" r="4.1"/>
	</g>
	<g>
		
			<ellipse transform="matrix(-0.1259 0.992 -0.992 -0.1259 1644.942 -874.2807)" fill="#FFFCDD" cx="1207.6" cy="287.5" rx="1.1" ry="13.4"/>
		
			<ellipse transform="matrix(-0.992 -0.1259 0.1259 -0.992 2369.4138 724.8328)" fill="#FFFCDD" cx="1207.6" cy="287.5" rx="1.1" ry="13.4"/>
		
			<ellipse transform="matrix(-0.7905 0.6124 -0.6124 -0.7905 2338.365 -224.767)" fill="#FFFCDD" cx="1207.6" cy="287.5" rx="0.6" ry="23.3"/>
		
			<ellipse transform="matrix(0.6124 0.7905 -0.7905 0.6124 695.342 -843.2319)" fill="#FFFCDD" cx="1207.6" cy="287.5" rx="0.6" ry="23.3"/>
		<circle fill="#FFFCDD" cx="1207.6" cy="287.5" r="5.1"/>
	</g>
	<g>
		
			<ellipse transform="matrix(0.9562 -0.2927 0.2927 0.9562 -30.1107 339.7283)" fill="#FFFCDD" cx="1120" cy="270.5" rx="0.8" ry="10"/>
		
			<ellipse transform="matrix(0.2927 0.9562 -0.9562 0.2927 1050.78 -879.6802)" fill="#FFFCDD" cx="1120" cy="270.5" rx="0.8" ry="10"/>
		
			<ellipse transform="matrix(0.8831 0.4691 -0.4691 0.8831 257.787 -493.8358)" fill="#FFFCDD" cx="1120" cy="270.5" rx="0.5" ry="17.3"/>
		
			<ellipse transform="matrix(0.4691 -0.8831 0.8831 0.4691 355.7338 1132.7214)" fill="#FFFCDD" cx="1120" cy="270.5" rx="0.5" ry="17.3"/>
		<circle fill="#FFFCDD" cx="1120" cy="270.5" r="3.8"/>
	</g>
	<g>
		
			<ellipse transform="matrix(0.6427 0.7661 -0.7661 0.6427 618.6738 -669.3966)" fill="#FFFCDD" cx="1027" cy="328.6" rx="1.2" ry="14.7"/>
		
			<ellipse transform="matrix(-0.7661 0.6427 -0.6427 -0.7661 2024.9758 -79.7412)" fill="#FFFCDD" cx="1027" cy="328.6" rx="1.2" ry="14.7"/>
		
			<ellipse transform="matrix(-8.726478e-02 0.9962 -0.9962 -8.726478e-02 1443.9465 -665.8236)" fill="#FFFCDD" cx="1027" cy="328.6" rx="0.7" ry="25.4"/>
		
			<ellipse transform="matrix(0.9962 8.726477e-02 -8.726477e-02 0.9962 32.5915 -88.3672)" fill="#FFFCDD" cx="1027" cy="328.6" rx="0.7" ry="25.4"/>
		<circle fill="#FFFCDD" cx="1027" cy="328.6" r="5.5"/>
	</g>
	<g>
		
			<ellipse transform="matrix(0.7081 0.7061 -0.7061 0.7081 519.1151 -568.7343)" fill="#FFFCDD" cx="947.5" cy="343.6" rx="1.4" ry="17"/>
		
			<ellipse transform="matrix(-0.7061 0.7081 -0.7081 -0.7061 1859.7925 -84.8292)" fill="#FFFCDD" cx="947.5" cy="343.6" rx="1.4" ry="17"/>
		<ellipse fill="#FFFCDD" cx="947.5" cy="343.6" rx="29.5" ry="0.8"/>
		<ellipse fill="#FFFCDD" cx="947.5" cy="343.6" rx="0.8" ry="29.5"/>
		<circle fill="#FFFCDD" cx="947.5" cy="343.6" r="6.4"/>
	</g>
	<g>
		
			<ellipse transform="matrix(0.4071 0.9134 -0.9134 0.4071 840.4937 -636.8571)" fill="#FFFCDD" cx="910.8" cy="329" rx="1.5" ry="17.4"/>
		
			<ellipse transform="matrix(-0.9134 0.4071 -0.4071 -0.9134 1876.6843 258.6803)" fill="#FFFCDD" cx="910.8" cy="329" rx="1.5" ry="17.4"/>
		
			<ellipse transform="matrix(-0.358 0.9337 -0.9337 -0.358 1544.0608 -403.6904)" fill="#FFFCDD" cx="910.8" cy="329" rx="0.8" ry="30.1"/>
		
			<ellipse transform="matrix(0.9337 0.358 -0.358 0.9337 178.1228 -304.2336)" fill="#FFFCDD" cx="910.8" cy="329" rx="0.8" ry="30.1"/>
		<circle fill="#FFFCDD" cx="910.8" cy="329" r="6.6"/>
	</g>
	<g>
		
			<ellipse transform="matrix(0.8968 0.4424 -0.4424 0.8968 216.4147 -344.4024)" fill="#FFFCDD" cx="846.6" cy="291.8" rx="0.9" ry="10.8"/>
		
			<ellipse transform="matrix(-0.4424 0.8968 -0.8968 -0.4424 1482.7909 -338.3973)" fill="#FFFCDD" cx="846.6" cy="291.8" rx="0.9" ry="10.8"/>
		
			<ellipse transform="matrix(0.3214 0.947 -0.947 0.3214 850.8465 -603.6749)" fill="#FFFCDD" cx="846.6" cy="291.8" rx="0.5" ry="18.8"/>
		
			<ellipse transform="matrix(0.947 -0.3214 0.3214 0.947 -48.863 287.542)" fill="#FFFCDD" cx="846.6" cy="291.8" rx="0.5" ry="18.8"/>
		<circle fill="#FFFCDD" cx="846.6" cy="291.8" r="4.1"/>
	</g>
	<g>
		
			<ellipse transform="matrix(0.9951 9.916784e-02 -9.916784e-02 0.9951 41.3242 -74.0322)" fill="#FFFCDD" cx="765.4" cy="378.7" rx="1.1" ry="13.3"/>
		
			<ellipse transform="matrix(-9.916780e-02 0.9951 -0.9951 -9.916780e-02 1218.0554 -345.3656)" fill="#FFFCDD" cx="765.4" cy="378.7" rx="1.1" ry="13.3"/>
		
			<ellipse transform="matrix(0.6335 0.7737 -0.7737 0.6335 573.4949 -453.4079)" fill="#FFFCDD" cx="765.4" cy="378.7" rx="0.6" ry="23"/>
		
			<ellipse transform="matrix(0.7737 -0.6335 0.6335 0.7737 -66.7181 570.5284)" fill="#FFFCDD" cx="765.4" cy="378.7" rx="0.6" ry="23"/>
		<circle fill="#FFFCDD" cx="765.4" cy="378.7" r="5"/>
	</g>
	<g>
		
			<ellipse transform="matrix(0.6261 0.7798 -0.7798 0.6261 470.6601 -460.0407)" fill="#FFFCDD" cx="715" cy="260.7" rx="1.2" ry="14.7"/>
		
			<ellipse transform="matrix(-0.7798 0.6261 -0.6261 -0.7798 1435.7466 16.3819)" fill="#FFFCDD" cx="715" cy="260.7" rx="1.2" ry="14.7"/>
		
			<ellipse transform="matrix(-0.1087 0.9941 -0.9941 -0.1087 1051.8735 -421.7052)" fill="#FFFCDD" cx="715" cy="260.7" rx="0.7" ry="25.5"/>
		
			<ellipse transform="matrix(0.9941 0.1087 -0.1087 0.9941 32.5728 -76.1678)" fill="#FFFCDD" cx="715" cy="260.7" rx="0.7" ry="25.5"/>
		<circle fill="#FFFCDD" cx="715" cy="260.7" r="5.6"/>
	</g>
	<g>
		
			<ellipse transform="matrix(0.9413 -0.3375 0.3375 0.9413 -82.4339 236.4411)" fill="#FFFCDD" cx="638.9" cy="355.3" rx="1" ry="11.9"/>
		
			<ellipse transform="matrix(0.3375 0.9413 -0.9413 0.3375 757.7679 -365.9793)" fill="#FFFCDD" cx="638.9" cy="355.3" rx="1" ry="11.9"/>
		
			<ellipse transform="matrix(0.9042 0.427 -0.427 0.9042 212.9016 -238.7806)" fill="#FFFCDD" cx="638.9" cy="355.3" rx="0.5" ry="20.6"/>
		
			<ellipse transform="matrix(0.427 -0.9042 0.9042 0.427 44.7647 781.3074)" fill="#FFFCDD" cx="638.9" cy="355.3" rx="0.5" ry="20.6"/>
		<circle fill="#FFFCDD" cx="638.9" cy="355.3" r="4.5"/>
	</g>
	<g>
		
			<ellipse transform="matrix(0.9658 0.2592 -0.2592 0.9658 105.6116 -139.4035)" fill="#FFFCDD" cx="581.5" cy="330.8" rx="1.6" ry="18.7"/>
		
			<ellipse transform="matrix(-0.2592 0.9658 -0.9658 -0.2592 1051.6995 -145.0479)" fill="#FFFCDD" cx="581.5" cy="330.8" rx="1.6" ry="18.7"/>
		
			<ellipse transform="matrix(0.4997 0.8662 -0.8662 0.4997 577.4866 -338.1668)" fill="#FFFCDD" cx="581.5" cy="330.8" rx="0.9" ry="32.3"/>
		
			<ellipse transform="matrix(0.8662 -0.4997 0.4997 0.8662 -87.5075 334.8094)" fill="#FFFCDD" cx="581.5" cy="330.8" rx="0.9" ry="32.3"/>
		<circle fill="#FFFCDD" cx="581.5" cy="330.8" r="7.1"/>
	</g>
	<g>
		
			<ellipse transform="matrix(-8.651542e-02 0.9963 -0.9963 -8.651542e-02 840.7814 -156.1115)" fill="#FFFCDD" cx="492" cy="307.4" rx="1.4" ry="16.1"/>
		
			<ellipse transform="matrix(-0.9963 -8.651529e-02 8.651529e-02 -0.9963 955.4833 656.2295)" fill="#FFFCDD" cx="492" cy="307.4" rx="1.4" ry="16.1"/>
		
			<ellipse transform="matrix(-0.7656 0.6433 -0.6433 -0.7656 1066.3734 226.3035)" fill="#FFFCDD" cx="492" cy="307.4" rx="0.7" ry="27.9"/>
		
			<ellipse transform="matrix(0.6433 0.7656 -0.7656 0.6433 410.8552 -267.0019)" fill="#FFFCDD" cx="492" cy="307.4" rx="0.7" ry="27.9"/>
		<circle fill="#FFFCDD" cx="492" cy="307.4" r="6.1"/>
	</g>
	<g>
		
			<ellipse transform="matrix(0.6007 0.7995 -0.7995 0.6007 488.2751 -201.1402)" fill="#FFFCDD" cx="445.5" cy="388.2" rx="1.5" ry="17.9"/>
		
			<ellipse transform="matrix(-0.7995 0.6007 -0.6007 -0.7995 1034.8792 431.0173)" fill="#FFFCDD" cx="445.5" cy="388.2" rx="1.5" ry="17.9"/>
		
			<ellipse transform="matrix(-0.1406 0.9901 -0.9901 -0.1406 892.5012 1.7334)" fill="#FFFCDD" cx="445.5" cy="388.2" rx="0.8" ry="31.1"/>
		
			<ellipse transform="matrix(0.9901 0.1406 -0.1406 0.9901 58.991 -58.7623)" fill="#FFFCDD" cx="445.5" cy="388.2" rx="0.8" ry="31.1"/>
		<circle fill="#FFFCDD" cx="445.5" cy="388.2" r="6.8"/>
	</g>
	<g>
		
			<ellipse transform="matrix(0.9026 0.4306 -0.4306 0.9026 147.6964 -123.8501)" fill="#FFFCDD" cx="347.5" cy="264.4" rx="0.7" ry="7.8"/>
		
			<ellipse transform="matrix(-0.4306 0.9026 -0.9026 -0.4306 735.6921 64.606)" fill="#FFFCDD" cx="347.5" cy="264.4" rx="0.7" ry="7.8"/>
		
			<ellipse transform="matrix(0.3337 0.9427 -0.9427 0.3337 480.7248 -151.3999)" fill="#FFFCDD" cx="347.5" cy="264.4" rx="0.4" ry="13.5"/>
		
			<ellipse transform="matrix(0.9427 -0.3337 0.3337 0.9427 -68.3095 131.1172)" fill="#FFFCDD" cx="347.5" cy="264.4" rx="0.4" ry="13.5"/>
		<circle fill="#FFFCDD" cx="347.5" cy="264.4" r="3"/>
	</g>
	<g>
		
			<ellipse transform="matrix(0.9721 0.2347 -0.2347 0.9721 68.6738 -51.5796)" fill="#FFFCDD" cx="251.1" cy="262.8" rx="1.2" ry="13.8"/>
		
			<ellipse transform="matrix(-0.2347 0.9721 -0.9721 -0.2347 565.402 80.3729)" fill="#FFFCDD" cx="251.1" cy="262.8" rx="1.2" ry="13.8"/>
		
			<ellipse transform="matrix(0.5214 0.8533 -0.8533 0.5214 344.3662 -88.479)" fill="#FFFCDD" cx="251.1" cy="262.8" rx="0.6" ry="24"/>
		
			<ellipse transform="matrix(0.8533 -0.5214 0.5214 0.8533 -100.1783 169.4562)" fill="#FFFCDD" cx="251.1" cy="262.8" rx="0.6" ry="24"/>
		<circle fill="#FFFCDD" cx="251.1" cy="262.8" r="5.2"/>
	</g>
	<g>
		
			<ellipse transform="matrix(5.278120e-02 0.9986 -0.9986 5.278120e-02 436.5947 114.8624)" fill="#FFFCDD" cx="157.8" cy="287.6" rx="1.6" ry="18.7"/>
		
			<ellipse transform="matrix(-0.9986 5.278128e-02 -5.278128e-02 -0.9986 330.4594 566.4156)" fill="#FFFCDD" cx="157.8" cy="287.6" rx="1.6" ry="18.7"/>
		
			<ellipse transform="matrix(-0.6688 0.7434 -0.7434 -0.6688 477.0466 362.6203)" fill="#FFFCDD" cx="157.8" cy="287.6" rx="0.9" ry="32.3"/>
		
			<ellipse transform="matrix(0.7434 0.6688 -0.6688 0.7434 232.7994 -31.7249)" fill="#FFFCDD" cx="157.8" cy="287.6" rx="0.9" ry="32.3"/>
		<circle fill="#FFFCDD" cx="157.8" cy="287.6" r="7.1"/>
	</g>
	<g>
		<ellipse transform="matrix(0.9515 -0.3077 0.3077 0.9515 -98.9737 33.351)" fill="#FFFCDD" cx="56.3" cy="330.6" rx="1" ry="12"/>
		
			<ellipse transform="matrix(0.3077 0.9515 -0.9515 0.3077 353.5049 175.3109)" fill="#FFFCDD" cx="56.3" cy="330.6" rx="1" ry="12"/>
		
			<ellipse transform="matrix(0.8904 0.4553 -0.4553 0.8904 156.6665 10.6196)" fill="#FFFCDD" cx="56.3" cy="330.6" rx="0.6" ry="20.8"/>
		
			<ellipse transform="matrix(0.4553 -0.8904 0.8904 0.4553 -263.6651 230.1894)" fill="#FFFCDD" cx="56.3" cy="330.6" rx="0.6" ry="20.8"/>
		<circle fill="#FFFCDD" cx="56.3" cy="330.6" r="4.5"/>
	</g>
	<g>
		
			<ellipse transform="matrix(2.069869e-02 0.9998 -0.9998 2.069869e-02 250.4858 208.8954)" fill="#FFFCDD" cx="18.6" cy="232.3" rx="0.7" ry="8.1"/>
		
			<ellipse transform="matrix(-0.9998 2.069865e-02 -2.069865e-02 -0.9998 42.0254 464.1858)" fill="#FFFCDD" cx="18.6" cy="232.3" rx="0.7" ry="8.1"/>
		
			<ellipse transform="matrix(-0.6923 0.7216 -0.7216 -0.6923 199.1279 379.7142)" fill="#FFFCDD" cx="18.6" cy="232.3" rx="0.4" ry="14"/>
		
			<ellipse transform="matrix(0.7216 0.6923 -0.6923 0.7216 166.0142 51.7929)" fill="#FFFCDD" cx="18.6" cy="232.3" rx="0.4" ry="14"/>
		<circle fill="#FFFCDD" cx="18.6" cy="232.3" r="3.1"/>
	</g>
	<g>
		
			<ellipse transform="matrix(0.9969 -7.857229e-02 7.857229e-02 0.9969 -8.8386 2.7345)" fill="#FFFCDD" cx="30.3" cy="113.7" rx="1.5" ry="17.8"/>
		
			<ellipse transform="matrix(7.857234e-02 0.9969 -0.9969 7.857234e-02 141.2785 74.5151)" fill="#FFFCDD" cx="30.3" cy="113.7" rx="1.5" ry="17.8"/>
		
			<ellipse transform="matrix(0.7605 0.6494 -0.6494 0.7605 81.0863 7.5346)" fill="#FFFCDD" cx="30.3" cy="113.7" rx="0.8" ry="30.8"/>
		
			<ellipse transform="matrix(0.6494 -0.7605 0.7605 0.6494 -75.8193 62.9269)" fill="#FFFCDD" cx="30.3" cy="113.7" rx="0.8" ry="30.8"/>
		<circle fill="#FFFCDD" cx="30.3" cy="113.7" r="6.7"/>
	</g>
	<g>
		
			<ellipse transform="matrix(0.9488 0.3157 -0.3157 0.9488 30.6417 -45.3682)" fill="#FFFCDD" cx="155.3" cy="71.9" rx="1.3" ry="15.7"/>
		
			<ellipse transform="matrix(-0.3157 0.9488 -0.9488 -0.3157 272.5782 -52.8107)" fill="#FFFCDD" cx="155.3" cy="71.9" rx="1.3" ry="15.7"/>
		
			<ellipse transform="matrix(0.4477 0.8942 -0.8942 0.4477 150.0686 -99.196)" fill="#FFFCDD" cx="155.3" cy="71.9" rx="0.7" ry="27.3"/>
		
			<ellipse transform="matrix(0.8942 -0.4477 0.4477 0.8942 -15.7438 77.1414)" fill="#FFFCDD" cx="155.3" cy="71.9" rx="0.7" ry="27.3"/>
		<circle fill="#FFFCDD" cx="155.3" cy="71.9" r="6"/>
	</g>
	<g>
		
			<ellipse transform="matrix(0.4067 0.9136 -0.9136 0.4067 293.1419 -122.5174)" fill="#FFFCDD" cx="240.9" cy="164.4" rx="1.3" ry="15.2"/>
		
			<ellipse transform="matrix(-0.9136 0.4067 -0.4067 -0.9136 527.8427 216.6748)" fill="#FFFCDD" cx="240.9" cy="164.4" rx="1.3" ry="15.2"/>
		
			<ellipse transform="matrix(-0.3584 0.9336 -0.9336 -0.3584 480.7412 -1.5293)" fill="#FFFCDD" cx="240.9" cy="164.4" rx="0.7" ry="26.4"/>
		
			<ellipse transform="matrix(0.9336 0.3584 -0.3584 0.9336 74.9377 -75.416)" fill="#FFFCDD" cx="240.9" cy="164.4" rx="0.7" ry="26.4"/>
		<circle fill="#FFFCDD" cx="240.9" cy="164.4" r="5.8"/>
	</g>
	<g>
		
			<ellipse transform="matrix(0.9453 0.3263 -0.3263 0.9453 41.0974 -105.0725)" fill="#FFFCDD" cx="333.7" cy="70" rx="0.7" ry="8.6"/>
		
			<ellipse transform="matrix(-0.3263 0.9453 -0.9453 -0.3263 508.7889 -222.6847)" fill="#FFFCDD" cx="333.7" cy="70" rx="0.7" ry="8.6"/>
		
			<ellipse transform="matrix(0.4377 0.8991 -0.8991 0.4377 250.5849 -260.7406)" fill="#FFFCDD" cx="333.7" cy="70" rx="0.4" ry="14.9"/>
		
			<ellipse transform="matrix(0.8991 -0.4377 0.4377 0.8991 3.0414 153.1315)" fill="#FFFCDD" cx="333.7" cy="70" rx="0.4" ry="14.9"/>
		<circle fill="#FFFCDD" cx="333.7" cy="70" r="3.3"/>
	</g>
	<g>
		
			<ellipse transform="matrix(0.3717 0.9284 -0.9284 0.3717 289.2224 -365.2549)" fill="#FFFCDD" cx="414.4" cy="31" rx="1.2" ry="14.6"/>
		
			<ellipse transform="matrix(-0.9284 0.3717 -0.3717 -0.9284 810.7274 -94.1845)" fill="#FFFCDD" cx="414.4" cy="31" rx="1.2" ry="14.6"/>
		
			<ellipse transform="matrix(-0.3937 0.9193 -0.9193 -0.3937 606.1153 -337.7268)" fill="#FFFCDD" cx="414.4" cy="31" rx="0.7" ry="25.3"/>
		
			<ellipse transform="matrix(0.9193 0.3937 -0.3937 0.9193 45.68 -160.643)" fill="#FFFCDD" cx="414.4" cy="31" rx="0.7" ry="25.3"/>
		<circle fill="#FFFCDD" cx="414.4" cy="31" r="5.5"/>
	</g>
	<g>
		
			<ellipse transform="matrix(0.6678 0.7444 -0.7444 0.6678 194.3105 -370.4075)" fill="#FFFCDD" cx="512.1" cy="32.5" rx="1.6" ry="18.8"/>
		
			<ellipse transform="matrix(-0.7444 0.6678 -0.6678 -0.7444 914.9706 -285.3169)" fill="#FFFCDD" cx="512.1" cy="32.5" rx="1.6" ry="18.8"/>
		
			<ellipse transform="matrix(-5.418499e-02 0.9985 -0.9985 -5.418499e-02 572.2632 -477.1157)" fill="#FFFCDD" cx="512.1" cy="32.5" rx="0.9" ry="32.5"/>
		
			<ellipse transform="matrix(0.9985 5.418501e-02 -5.418501e-02 0.9985 2.5116 -27.7002)" fill="#FFFCDD" cx="512.1" cy="32.5" rx="0.9" ry="32.5"/>
		<circle fill="#FFFCDD" cx="512.1" cy="32.5" r="7.1"/>
	</g>
	<g>
		
			<ellipse transform="matrix(0.6871 0.7266 -0.7266 0.6871 274.3507 -387.4207)" fill="#FFFCDD" cx="587" cy="124.8" rx="1" ry="12.1"/>
		
			<ellipse transform="matrix(-0.7266 0.6871 -0.6871 -0.7266 1099.1671 -187.8032)" fill="#FFFCDD" cx="587" cy="124.8" rx="1" ry="12.1"/>
		
			<ellipse transform="matrix(-2.794681e-02 0.9996 -0.9996 -2.794681e-02 728.101 -458.437)" fill="#FFFCDD" cx="587" cy="124.8" rx="0.6" ry="20.9"/>
		
			<ellipse transform="matrix(0.9996 2.794685e-02 -2.794685e-02 0.9996 3.7169 -16.3547)" fill="#FFFCDD" cx="587" cy="124.8" rx="0.6" ry="20.9"/>
		<circle fill="#FFFCDD" cx="587" cy="124.8" r="4.6"/>
	</g>
	<g>
		
			<ellipse transform="matrix(0.9781 -0.2082 0.2082 0.9781 4.8817 142.6961)" fill="#FFFCDD" cx="680.4" cy="48.2" rx="1.5" ry="17.5"/>
		
			<ellipse transform="matrix(0.2082 0.9781 -0.9781 0.2082 585.895 -627.4027)" fill="#FFFCDD" cx="680.4" cy="48.2" rx="1.5" ry="17.5"/>
		
			<ellipse transform="matrix(0.8388 0.5444 -0.5444 0.8388 135.8957 -362.685)" fill="#FFFCDD" cx="680.4" cy="48.2" rx="0.8" ry="30.4"/>
		
			<ellipse transform="matrix(0.5444 -0.8388 0.8388 0.5444 269.5992 592.6954)" fill="#FFFCDD" cx="680.4" cy="48.2" rx="0.8" ry="30.4"/>
		<circle fill="#FFFCDD" cx="680.4" cy="48.2" r="6.6"/>
	</g>
	<g>
		
			<ellipse transform="matrix(0.9967 -8.082747e-02 8.082747e-02 0.9967 -2.6293 58.7166)" fill="#FFFCDD" cx="723.9" cy="61.8" rx="1.4" ry="16.6"/>
		
			<ellipse transform="matrix(8.082750e-02 0.9967 -0.9967 8.082750e-02 727.0585 -664.735)" fill="#FFFCDD" cx="723.9" cy="61.8" rx="1.4" ry="16.6"/>
		
			<ellipse transform="matrix(0.7619 0.6476 -0.6476 0.7619 212.3829 -454.1325)" fill="#FFFCDD" cx="723.9" cy="61.8" rx="0.8" ry="28.8"/>
		
			<ellipse transform="matrix(0.6476 -0.7619 0.7619 0.6476 207.9732 573.3923)" fill="#FFFCDD" cx="723.9" cy="61.8" rx="0.8" ry="28.8"/>
		<circle fill="#FFFCDD" cx="723.9" cy="61.8" r="6.3"/>
	</g>
	<g>
		
			<ellipse transform="matrix(0.9946 -0.1041 0.1041 0.9946 -2.9611 80.2081)" fill="#FFFCDD" cx="767.3" cy="68.5" rx="1.2" ry="14"/>
		
			<ellipse transform="matrix(0.1041 0.9946 -0.9946 0.1041 755.5448 -701.7446)" fill="#FFFCDD" cx="767.3" cy="68.5" rx="1.2" ry="14"/>
		
			<ellipse transform="matrix(0.7768 0.6297 -0.6297 0.7768 214.3442 -467.8599)" fill="#FFFCDD" cx="767.3" cy="68.5" rx="0.6" ry="24.2"/>
		
			<ellipse transform="matrix(0.6297 -0.7768 0.7768 0.6297 230.9234 621.4088)" fill="#FFFCDD" cx="767.3" cy="68.5" rx="0.6" ry="24.2"/>
		<circle fill="#FFFCDD" cx="767.3" cy="68.5" r="5.3"/>
	</g>
	<g>
		
			<ellipse transform="matrix(0.4557 0.8901 -0.8901 0.4557 628.3821 -661.3646)" fill="#FFFCDD" cx="855" cy="183.1" rx="1.4" ry="17.1"/>
		
			<ellipse transform="matrix(-0.8901 0.4557 -0.4557 -0.8901 1699.4469 -43.4597)" fill="#FFFCDD" cx="855" cy="183.1" rx="1.4" ry="17.1"/>
		
			<ellipse transform="matrix(-0.3072 0.9516 -0.9516 -0.3072 1291.8867 -574.2368)" fill="#FFFCDD" cx="855" cy="183.1" rx="0.8" ry="29.6"/>
		
			<ellipse transform="matrix(0.9516 0.3072 -0.3072 0.9516 97.6049 -253.8046)" fill="#FFFCDD" cx="855" cy="183.1" rx="0.8" ry="29.6"/>
		<circle fill="#FFFCDD" cx="855" cy="183.1" r="6.5"/>
	</g>
	<g>
		
			<ellipse transform="matrix(0.1496 0.9887 -0.9887 0.1496 908.0798 -756.8612)" fill="#FFFCDD" cx="894" cy="149.5" rx="0.9" ry="10.6"/>
		
			<ellipse transform="matrix(-0.9887 0.1496 -0.1496 -0.9887 1800.3812 163.5199)" fill="#FFFCDD" cx="894" cy="149.5" rx="0.9" ry="10.6"/>
		
			<ellipse transform="matrix(-0.5934 0.8049 -0.8049 -0.5934 1544.8477 -481.4722)" fill="#FFFCDD" cx="894" cy="149.5" rx="0.5" ry="18.4"/>
		
			<ellipse transform="matrix(0.8049 0.5934 -0.5934 0.8049 263.0875 -501.3276)" fill="#FFFCDD" cx="894" cy="149.5" rx="0.5" ry="18.4"/>
		<circle fill="#FFFCDD" cx="894" cy="149.5" r="4"/>
	</g>
	<g>
		
			<ellipse transform="matrix(3.440853e-02 0.9994 -0.9994 3.440853e-02 980.1884 -891.4995)" fill="#FFFCDD" cx="951.5" cy="61.5" rx="1.2" ry="13.8"/>
		
			<ellipse transform="matrix(-0.9994 3.440860e-02 -3.440860e-02 -0.9994 1904.4624 90.2418)" fill="#FFFCDD" cx="951.5" cy="61.5" rx="1.2" ry="13.8"/>
		
			<ellipse transform="matrix(-0.6824 0.731 -0.731 -0.6824 1645.6505 -592.0524)" fill="#FFFCDD" cx="951.5" cy="61.5" rx="0.6" ry="23.8"/>
		
			<ellipse transform="matrix(0.731 0.6824 -0.6824 0.731 297.8942 -632.6877)" fill="#FFFCDD" cx="951.5" cy="61.5" rx="0.6" ry="23.8"/>
		<circle fill="#FFFCDD" cx="951.5" cy="61.5" r="5.2"/>
	</g>
	<g>
		
			<ellipse transform="matrix(7.371369e-02 0.9973 -0.9973 7.371369e-02 1045.2479 -905.389)" fill="#FFFCDD" cx="1010" cy="110" rx="0.9" ry="10.8"/>
		
			<ellipse transform="matrix(-0.9973 7.371376e-02 -7.371376e-02 -0.9973 2025.3881 145.2185)" fill="#FFFCDD" cx="1010" cy="110" rx="0.9" ry="10.8"/>
		
			<ellipse transform="matrix(-0.6531 0.7573 -0.7573 -0.6531 1752.9058 -583.079)" fill="#FFFCDD" cx="1010" cy="110" rx="0.5" ry="18.7"/>
		
			<ellipse transform="matrix(0.7573 0.6531 -0.6531 0.7573 316.9505 -632.9069)" fill="#FFFCDD" cx="1010" cy="110" rx="0.5" ry="18.7"/>
		<circle fill="#FFFCDD" cx="1010" cy="110" r="4.1"/>
	</g>
	<g>
		
			<ellipse transform="matrix(0.5717 0.8205 -0.8205 0.5717 525.4057 -863.4268)" fill="#FFFCDD" cx="1089.7" cy="71.5" rx="1.4" ry="16.4"/>
		
			<ellipse transform="matrix(-0.8205 0.5717 -0.5717 -0.8205 2024.6027 -492.758)" fill="#FFFCDD" cx="1089.7" cy="71.5" rx="1.4" ry="16.4"/>
		
			<ellipse transform="matrix(-0.1759 0.9844 -0.9844 -0.1759 1351.7721 -988.5861)" fill="#FFFCDD" cx="1089.7" cy="71.5" rx="0.7" ry="28.4"/>
		
			<ellipse transform="matrix(0.9844 0.1759 -0.1759 0.9844 29.5775 -190.5962)" fill="#FFFCDD" cx="1089.7" cy="71.5" rx="0.7" ry="28.4"/>
		<circle fill="#FFFCDD" cx="1089.7" cy="71.5" r="6.2"/>
	</g>
	<g>
		
			<ellipse transform="matrix(0.9385 0.3453 -0.3453 0.9385 110.8605 -389.8067)" fill="#FFFCDD" cx="1149.6" cy="116.3" rx="1.4" ry="16.5"/>
		
			<ellipse transform="matrix(-0.3453 0.9385 -0.9385 -0.3453 1655.6835 -922.4626)" fill="#FFFCDD" cx="1149.6" cy="116.3" rx="1.4" ry="16.5"/>
		
			<ellipse transform="matrix(0.4194 0.9078 -0.9078 0.4194 772.9553 -976.0779)" fill="#FFFCDD" cx="1149.6" cy="116.3" rx="0.8" ry="28.5"/>
		
			<ellipse transform="matrix(0.9078 -0.4194 0.4194 0.9078 57.245 492.9214)" fill="#FFFCDD" cx="1149.6" cy="116.3" rx="0.8" ry="28.5"/>
		<circle fill="#FFFCDD" cx="1149.6" cy="116.3" r="6.2"/>
	</g>
	<g>
		
			<ellipse transform="matrix(0.8205 0.5716 -0.5716 0.8205 240.1024 -672.6298)" fill="#FFFCDD" cx="1191.2" cy="46" rx="0.6" ry="7.5"/>
		
			<ellipse transform="matrix(-0.5716 0.8205 -0.8205 -0.5716 1909.8307 -905.0344)" fill="#FFFCDD" cx="1191.2" cy="46" rx="0.6" ry="7.5"/>
		
			<ellipse transform="matrix(0.176 0.9844 -0.9844 0.176 1026.8341 -1134.644)" fill="#FFFCDD" cx="1191.2" cy="46" rx="0.3" ry="12.9"/>
		
			<ellipse transform="matrix(0.9844 -0.176 0.176 0.9844 10.4927 210.3668)" fill="#FFFCDD" cx="1191.2" cy="46" rx="0.3" ry="12.9"/>
		<circle fill="#FFFCDD" cx="1191.2" cy="46" r="2.8"/>
	</g>
	<g>
		
			<ellipse transform="matrix(0.9977 6.769133e-02 -6.769133e-02 0.9977 10.0977 -85.1938)" fill="#FFFCDD" cx="1262.2" cy="106.4" rx="1.1" ry="13.3"/>
		
			<ellipse transform="matrix(-6.769130e-02 0.9977 -0.9977 -6.769130e-02 1453.7662 -1145.6655)" fill="#FFFCDD" cx="1262.2" cy="106.4" rx="1.1" ry="13.3"/>
		
			<ellipse transform="matrix(0.6576 0.7533 -0.7533 0.6576 512.3011 -914.4231)" fill="#FFFCDD" cx="1262.2" cy="106.4" rx="0.6" ry="23"/>
		
			<ellipse transform="matrix(0.7533 -0.6576 0.6576 0.7533 241.34 856.2714)" fill="#FFFCDD" cx="1262.2" cy="106.4" rx="0.6" ry="23"/>
		<circle fill="#FFFCDD" cx="1262.2" cy="106.4" r="5"/>
	</g>
	<g>
		
			<ellipse transform="matrix(0.801 0.5987 -0.5987 0.801 326.7424 -753.111)" fill="#FFFCDD" cx="1296" cy="114.9" rx="0.6" ry="7.6"/>
		
			<ellipse transform="matrix(-0.5987 0.801 -0.801 -0.5987 2164.0063 -854.4349)" fill="#FFFCDD" cx="1296" cy="114.9" rx="0.6" ry="7.6"/>
		
			<ellipse transform="matrix(0.143 0.9897 -0.9897 0.143 1224.3895 -1184.2827)" fill="#FFFCDD" cx="1296" cy="114.9" rx="0.3" ry="13.1"/>
		
			<ellipse transform="matrix(0.9897 -0.143 0.143 0.9897 -3.1055 186.5059)" fill="#FFFCDD" cx="1296" cy="114.9" rx="0.3" ry="13.1"/>
		<circle fill="#FFFCDD" cx="1296" cy="114.9" r="2.9"/>
	</g>
	<g>
		
			<ellipse transform="matrix(0.5073 0.8618 -0.8618 0.5073 779.9217 -1132.5487)" fill="#FFFCDD" cx="1380.4" cy="115.8" rx="0.6" ry="7.6"/>
		
			<ellipse transform="matrix(-0.8618 0.5073 -0.5073 -0.8618 2628.7825 -484.7028)" fill="#FFFCDD" cx="1380.4" cy="115.8" rx="0.6" ry="7.6"/>
		
			<ellipse transform="matrix(-0.2506 0.9681 -0.9681 -0.2506 1838.5254 -1191.5371)" fill="#FFFCDD" cx="1380.4" cy="115.8" rx="0.3" ry="13.1"/>
		
			<ellipse transform="matrix(0.9681 0.2506 -0.2506 0.9681 73.0871 -342.2915)" fill="#FFFCDD" cx="1380.4" cy="115.8" rx="0.3" ry="13.1"/>
		<circle fill="#FFFCDD" cx="1380.4" cy="115.8" r="2.9"/>
	</g>
</g>
<g>
	<g>
		<g>
			<polygon fill="#EFEFEF" points="355.1,816.8 222.3,816.8 248.4,348.5 329,348.5 			"/>
			<polygon fill="#FEFEFE" points="316,816.8 261.4,816.8 272.1,348.5 305.3,348.5 			"/>
			<polygon fill="#C24407" points="335,456.1 242.4,456.1 245.6,398.6 331.8,398.6 			"/>
			<polygon fill="#F05201" points="307.7,456.1 269.7,456.1 271,398.6 306.4,398.6 			"/>
			<polygon fill="#C24407" points="343.2,604.3 234.2,604.3 238.6,525.4 338.8,525.4 			"/>
			<polygon fill="#F05201" points="311.1,604.3 266.3,604.3 268.1,525.4 309.3,525.4 			"/>
			<polygon fill="#C24407" points="355.1,816.8 222.3,816.8 228.7,701.9 348.7,701.9 			"/>
			<polygon fill="#F05201" points="316,816.8 261.4,816.8 264,701.9 313.4,701.9 			"/>
		</g>
		<rect x="238.3" y="277.1" fill="#C24407" width="100.8" height="71.4"/>
		<rect x="268" y="277.1" fill="#F05201" width="41.5" height="71.4"/>
		<path d="M299.3,348.5h-21.2v-44c0-5.8,4.7-10.6,10.6-10.6h0c5.8,0,10.6,4.7,10.6,10.6V348.5z"/>
		<g>
			<rect x="305.9" y="210.9" width="24.6" height="66.2"/>
			<rect x="309.2" y="214.8" fill="#E8E695" width="18.1" height="58.3"/>
			<rect x="246.8" y="210.9" width="24.6" height="66.2"/>
			<rect x="250.1" y="214.8" fill="#E8E695" width="18.1" height="58.3"/>
			<rect x="271.5" y="210.9" fill="#181823" width="34.5" height="66.2"/>
			<rect x="274.7" y="214.8" fill="#E8E695" width="27.9" height="58.3"/>
		</g>
		<polygon points="288.7,164.9 348.3,210.9 317.2,210.9 		"/>
		<polygon fill="#181823" points="288.7,164.9 260.2,210.9 288.7,210.9 317.2,210.9 		"/>
		<polygon points="288.7,164.9 229.2,210.9 260.2,210.9 		"/>
		<rect x="238.3" y="210.9" width="100.8" height="2"/>
		<path d="M303.8,816.8h-30.3l1.1-50c0.2-7.6,6.4-13.7,14-13.7h0c7.6,0,13.8,6.1,14,13.7L303.8,816.8z"/>
		<path d="M300.4,701.9H277l0.9-38.7c0.1-5.9,4.9-10.6,10.8-10.6h0c5.9,0,10.7,4.7,10.8,10.6L300.4,701.9z"/>
		<path d="M299,604.3h-20.6l0.8-34.1c0.1-5.2,4.4-9.3,9.5-9.3h0c5.2,0,9.4,4.1,9.5,9.3L299,604.3z"/>
		<path d="M297.7,525.4h-18l0.7-29.8c0.1-4.5,3.8-8.1,8.3-8.1h0c4.5,0,8.2,3.6,8.3,8.1L297.7,525.4z"/>
		<path d="M296.4,456.1H281l0.6-25.5c0.1-3.9,3.3-7,7.1-7h0c3.9,0,7.1,3.1,7.1,7L296.4,456.1z"/>
		<circle cx="288.7" cy="164.9" r="5.4"/>
		<circle cx="288.7" cy="157.3" r="4.3"/>
		<polygon points="288.7,134.4 286.5,156 288.7,156 290.9,156 		"/>
		<rect x="213.5" y="348.5" width="150.4" height="5.1"/>
		<rect x="257.8" y="348.5" fill="#181823" width="61.9" height="5.1"/>
		<rect x="222.7" y="277.1" width="131.9" height="5.1"/>
		<rect x="261.6" y="277.1" fill="#181823" width="54.3" height="5.1"/>
		<rect x="213.5" y="321.5" width="150.4" height="5.1"/>
		<rect x="257.8" y="321.5" fill="#181823" width="61.9" height="5.1"/>
		<rect x="222.7" y="250" width="131.9" height="5.1"/>
		<rect x="261.6" y="250" fill="#181823" width="54.3" height="5.1"/>
		<g>
			<rect x="350.3" y="250" width="4.4" height="32.2"/>
			<rect x="334.4" y="250" width="4.4" height="32.2"/>
			<rect x="318.4" y="250" width="4.4" height="32.2"/>
			<rect x="302.5" y="250" fill="#181823" width="4.4" height="32.2"/>
			<rect x="286.5" y="250" fill="#181823" width="4.4" height="32.2"/>
			<rect x="270.6" y="250" fill="#181823" width="4.4" height="32.2"/>
			<rect x="254.6" y="250" width="4.4" height="32.2"/>
			<rect x="238.7" y="250" width="4.4" height="32.2"/>
			<rect x="222.7" y="250" width="4.4" height="32.2"/>
		</g>
		<g>
			<rect x="360.8" y="321.5" width="3.1" height="32.2"/>
			<rect x="344.4" y="321.5" width="3.1" height="32.2"/>
			<rect x="328.1" y="321.5" width="3.1" height="32.2"/>
			<rect x="311.7" y="321.5" fill="#181823" width="3.1" height="32.2"/>
			<rect x="295.3" y="321.5" fill="#181823" width="3.1" height="32.2"/>
			<rect x="279" y="321.5" fill="#181823" width="3.1" height="32.2"/>
			<rect x="262.6" y="321.5" fill="#181823" width="3.1" height="32.2"/>
			<rect x="246.2" y="321.5" width="3.1" height="32.2"/>
			<rect x="229.9" y="321.5" width="3.1" height="32.2"/>
			<rect x="213.5" y="321.5" width="3.1" height="32.2"/>
		</g>
	</g>
	<path d="M502.7,877.6c0.3-1.3,0.6-2.5,1-3.7c-3-3.3-3.8-9.4-8.3-13.4c-7.4-6.7-15.9-2.7-23.5-7c-13.4-7.7-5.7-25.3-23.7-24.3
		c-8.2,0.5-12.2,4.4-21,2.2c-5-1.3-13.7-9.1-17.8-10.5c-11.6-3.8-20.2,0.1-29.1-7.8c-2.8-2.5-6.7-3.3-10.3-2.4
		c-15.6,3.9-40.4,7.9-51-1c-7.4-6.2-1.7-8.5-11.4-9.3c-5.4-0.5-9.8,4.6-16,4c-3.8-0.4-7.6-4.2-12.4-5.1c-2.6-0.5-5.3-0.1-7.9,0
		c-2.8,0.1-5.4-1.4-6.7-3.8c-3-5.6-6.7-9.2-5.5-18.3c0.8-6.7,3.6-12.2,3.4-18.9c0-1.8-1.2-3.4-2.9-3.9c-6.9-2.1-15-9.5-18-16.4
		c-0.7-1.5-2.7-11.2-2.8-12.7c-0.2-2.9,2.7-11,1.5-14.8c-1.5-4.8-14.5-7.5-20.1-6.1c-11,2.6-7.8,8.3-11.4,16.9
		c-1.9,4.4-6.3,8.3-8.6,13.4c-2.1,4.7-1.5,12.1-3.5,16c-5.4,11-18.3,11.2-28.4,15.6c-13.4,5.8-15.5,13.1-16.4,27.3
		c-0.5,8.8-1.5,17.5-6,25.4c-4.6,8-15.1,13.1-16.3,22.9c-1.8,14.2-8.1,25.4-10.5,35.7H502.7z"/>
	<rect x="52.2" y="877.6" fill="#181823" width="518.1" height="41.4"/>
</g>
<path d="M0,980h1162.8c-1.3-4.7-2.7-9.6-3.8-11.9c-6.4-13.2-9-7.1-17.6-13.9c-6-4.7-5.4-4.8-9.8-9.9c-11.4-13.4-8.1-15.7-26.2-21.7
	c-14-4.7-20.7-10.5-34.3-17c-29.9-14.4-39,9.2-65.9,14.3c-32.9,6.3-66.8-16.7-96.9-23.1c-14.1-3-35.8-3.1-49.9,1.1
	c-12.9,3.8-18.9,13.1-33.5,12.3c-16.9-0.9-21.4-15.1-36.6-18.4c-14.5-3.1-32.5,6.7-44.7,12.8c-26.7,13.2-37.3,17.4-63.9,9.1
	c-28-8.7-44.7,2-72.2,4.1c-20.3,1.6-40.9-5.3-60.6-7.7c-14.2-1.7-15.8-1-27.5-8.5c-6.1-3.9-8.7-11.6-16.4-13.7
	c-15.5-4.2-24.1,10.2-35.7,12.3c-21.1,3.9-27.2-20.9-47-20c-18.4,0.8-14.6,16.4-33.3,8.1c-23.6-10.5-18.3-20.4-43.7-0.8
	c-23.6,18.3-39.2,22-67.1,10.9c-14-5.6-67.5-14.2-80.2,2.5c-13.4-26.9-59.2-37.3-84.8-26.9c-2.8,1.1-5.5,2.5-8,4
	c-10-12.3-24.2-21.5-39.3-23.6c-20.8-3-44.1,1.8-64,12.4V980z"/>
<radialGradient id="SVGID_2_" cx="293.3362" cy="239.9866" r="1055.7495" gradientTransform="matrix(1 0 0 3.083805e-02 0 232.5858)" gradientUnits="userSpaceOnUse">
	<stop  offset="0" style="stop-color:#FFFBD2"/>
	<stop  offset="1" style="stop-color:#FFF570;stop-opacity:0.1"/>
</radialGradient>
<polygon fill="url(#SVGID_2_)" points="318.5,214.8 318.5,242 318.5,269.2 1400,484 1400,242 1400,0 "/>
<radialGradient id="SVGID_3_" cx="293.3362" cy="239.9866" r="1055.7495" gradientTransform="matrix(-0.9849 0 0 3.083805e-02 573.8489 232.5858)" gradientUnits="userSpaceOnUse">
	<stop  offset="0" style="stop-color:#FFFBD2"/>
	<stop  offset="1" style="stop-color:#FFF570;stop-opacity:0.1"/>
</radialGradient>
<polygon fill="url(#SVGID_3_)" points="0,162.4 0,321.6 260.2,269.2 260.2,214.8 "/>
</svg>
